<?xml version="1.0" encoding="UTF-8"?>
<svg xmlns="http://www.w3.org/2000/svg" width="3000" height="3000"
     viewBox="815.458 684.221 1391.421 1156.724">
    <path fill-rule="nonzero" fill="rgb(71.679688%, 26.660156%, 0%)" fill-opacity="1"
    d="M 1126.390625 1122.101562 L 1126.398438 1122.109375 Z M 888.566406 797 C 888.316406 797 888.089844 797.140625 887.984375 797.359375 C 887.878906 797.589844 887.910156 797.851562 888.066406 798.039062 C 963.3125 889.589844 1036.070312 979.441406 1084.488281 1052.539062 C 1101 1077.480469 1114.679688 1100.460938 1126.390625 1122.101562 C 1126.5 1122.308594 1126.710938 1122.429688 1126.941406 1122.429688 C 1126.988281 1122.429688 1127.050781 1122.429688 1127.101562 1122.421875 C 1127.140625 1122.410156 1127.191406 1122.390625 1127.230469 1122.371094 L 1127.230469 1122.359375 C 1127.328125 1122.320312 1127.410156 1122.238281 1127.46875 1122.148438 C 1138.691406 1107.75 1149.390625 1093.679688 1159.480469 1079.988281 C 1207.328125 1015.128906 1241.679688 958.941406 1271.011719 905.960938 C 1271.128906 905.738281 1271.109375 905.46875 1270.960938 905.269531 L 1269.691406 903.539062 L 1269.679688 903.539062 C 1269.609375 903.390625 1269.480469 903.28125 1269.320312 903.21875 C 1177.460938 872.109375 1073.339844 840.621094 975.878906 816.78125 C 946.246094 809.53125 917.210938 802.988281 888.6875 797.019531 Z M 888.566406 797 "/>
    <path fill-rule="nonzero" fill="rgb(100%, 37.255859%, 0%)" fill-opacity="1"
          d="M 1271.769531 906.808594 C 1271.539062 906.808594 1271.320312 906.929688 1271.199219 907.140625 C 1251.859375 942.03125 1230.328125 978.339844 1204.179688 1017.609375 C 1204.050781 1017.808594 1204.039062 1018.050781 1204.148438 1018.261719 C 1204.191406 1018.351562 1204.261719 1018.421875 1204.339844 1018.480469 L 1204.328125 1018.480469 L 1311.128906 1121.539062 C 1311.179688 1121.589844 1311.210938 1121.671875 1311.191406 1121.738281 L 1311.101562 1122.230469 C 1311.039062 1122.519531 1311.191406 1122.808594 1311.460938 1122.929688 C 1311.539062 1122.96875 1311.628906 1122.988281 1311.710938 1122.988281 C 1311.910156 1122.988281 1312.101562 1122.898438 1312.230469 1122.738281 L 1372.25 1044.628906 L 1372.628906 1044.128906 C 1372.800781 1043.910156 1372.808594 1043.589844 1372.640625 1043.371094 L 1370.609375 1040.621094 L 1272.28125 907.070312 C 1272.160156 906.910156 1271.96875 906.808594 1271.769531 906.808594 Z M 1271.769531 906.808594 "/>
    <path fill-rule="nonzero" fill="rgb(100%, 48.242188%, 17.259216%)" fill-opacity="1"
          d="M 1203.75 1018.78125 C 1203.539062 1018.769531 1203.328125 1018.878906 1203.210938 1019.058594 C 1190.089844 1038.710938 1175.820312 1059.101562 1160.078125 1080.429688 C 1149.808594 1094.359375 1138.929688 1108.671875 1127.488281 1123.339844 C 1127.480469 1123.359375 1127.460938 1123.371094 1127.460938 1123.390625 L 1127.449219 1123.390625 L 1127.378906 1123.488281 L 1127.058594 1123.890625 L 1126.75 1124.289062 C 1126.480469 1124.640625 1126.339844 1124.808594 1126.070312 1125.160156 C 1091.210938 1169.789062 1051.421875 1217.589844 1009.050781 1267.058594 C 1008.890625 1267.238281 1008.851562 1267.511719 1008.949219 1267.730469 C 1009.050781 1267.941406 1009.25 1268.089844 1009.488281 1268.109375 L 1274.691406 1296.039062 C 1274.78125 1296.050781 1274.851562 1296.109375 1274.890625 1296.179688 L 1274.921875 1296.25 C 1275.03125 1296.46875 1275.25 1296.609375 1275.480469 1296.609375 C 1275.519531 1296.609375 1275.539062 1296.609375 1275.570312 1296.601562 C 1275.839844 1296.570312 1276.058594 1296.359375 1276.121094 1296.089844 L 1309.191406 1129.589844 L 1309.960938 1125.691406 L 1311.179688 1124.101562 C 1311.390625 1123.820312 1311.339844 1123.421875 1311.070312 1123.210938 C 1310.949219 1123.121094 1310.820312 1123.078125 1310.691406 1123.070312 C 1310.609375 1123.070312 1310.539062 1123.089844 1310.46875 1123.109375 L 1310.671875 1122.109375 C 1310.710938 1121.898438 1310.640625 1121.679688 1310.488281 1121.53125 L 1204.191406 1018.960938 C 1204.070312 1018.839844 1203.921875 1018.78125 1203.75 1018.78125 Z M 1203.75 1018.78125 "/>
    <path fill-rule="nonzero" fill="rgb(100%, 80.076599%, 57.617188%)" fill-opacity="1"
          d="M 1009.941406 1268.648438 L 1009.730469 1268.691406 C 1009.339844 1268.820312 1009.308594 1269.210938 1009.308594 1269.210938 C 1009.289062 1269.390625 1009.339844 1269.570312 1009.460938 1269.699219 C 1009.5 1269.761719 1009.558594 1269.808594 1009.621094 1269.839844 C 1088.039062 1324.671875 1167.128906 1381.121094 1264.28125 1483.058594 C 1333.191406 1555.359375 1411.199219 1650.558594 1492.070312 1752.980469 C 1492.191406 1753.140625 1492.378906 1753.21875 1492.570312 1753.21875 C 1492.679688 1753.21875 1492.800781 1753.191406 1492.910156 1753.121094 C 1493.179688 1752.949219 1493.289062 1752.601562 1493.140625 1752.308594 L 1276.730469 1301.160156 L 1275.488281 1298.589844 L 1274.660156 1296.839844 C 1274.558594 1296.640625 1274.371094 1296.511719 1274.148438 1296.480469 L 1010.011719 1268.660156 C 1009.988281 1268.648438 1009.96875 1268.648438 1009.941406 1268.648438 Z M 1009.941406 1268.648438 "/>
    <path fill-rule="nonzero" fill="rgb(100%, 31.762695%, 9.812927%)" fill-opacity="1"
          d="M 1273.03125 904.851562 C 1272.921875 904.851562 1272.820312 904.910156 1272.761719 905.011719 C 1272.648438 905.210938 1272.589844 905.320312 1272.46875 905.53125 C 1272.421875 905.621094 1272.421875 905.738281 1272.480469 905.828125 C 1272.488281 905.859375 1272.519531 905.890625 1272.539062 905.910156 L 1373.238281 1042.691406 L 1373.761719 1043.390625 C 1373.921875 1043.609375 1373.921875 1043.910156 1373.75 1044.128906 L 1373.21875 1044.820312 L 1310.671875 1126.21875 L 1310.621094 1126.339844 L 1276.429688 1298.480469 C 1276.410156 1298.550781 1276.421875 1298.621094 1276.449219 1298.679688 L 1493.421875 1750.96875 C 1493.46875 1751.078125 1493.570312 1751.140625 1493.691406 1751.140625 C 1493.710938 1751.140625 1493.730469 1751.140625 1493.761719 1751.140625 C 1493.898438 1751.109375 1494 1750.980469 1494 1750.839844 L 1502.179688 1103.761719 L 1503.050781 1103.398438 C 1503.210938 1103.328125 1503.28125 1103.148438 1503.210938 1103 C 1503.160156 1102.878906 1503.058594 1102.808594 1502.929688 1102.808594 C 1502.890625 1102.808594 1502.851562 1102.820312 1502.808594 1102.828125 L 1502.191406 1103.089844 L 1502.199219 1102.289062 L 1502.210938 1101.058594 L 1502.230469 1099.78125 L 1503.570312 994.21875 C 1503.570312 994.199219 1503.578125 994.179688 1503.589844 994.148438 C 1503.609375 994.011719 1503.53125 993.878906 1503.410156 993.828125 C 1503.101562 993.679688 1502.679688 993.488281 1502.339844 993.339844 C 1502.320312 993.328125 1502.308594 993.320312 1502.289062 993.308594 C 1476.609375 981.609375 1447.070312 969.058594 1411.960938 955.308594 C 1371.859375 939.601562 1324.46875 922.308594 1273.128906 904.859375 L 1273.039062 904.851562 Z M 1273.03125 904.851562 "/>
    <path fill-rule="nonzero" fill="rgb(100%, 31.762695%, 9.812927%)" fill-opacity="1"
          d="M 1738.058594 909.859375 C 1738 909.859375 1737.949219 909.871094 1737.890625 909.890625 C 1686.191406 926.179688 1638.429688 942.390625 1597.980469 957.191406 C 1562.558594 970.160156 1532.761719 982.03125 1506.808594 993.171875 C 1506.148438 993.449219 1505.519531 993.730469 1504.859375 994.011719 C 1504.640625 994.109375 1504.511719 994.351562 1504.558594 994.589844 L 1503.230469 1100.269531 L 1503.21875 1100.578125 L 1503.199219 1102.628906 L 1503.191406 1102.628906 C 1503.140625 1102.679688 1503.089844 1102.730469 1503.058594 1102.808594 C 1502.96875 1103.019531 1503.03125 1103.261719 1503.191406 1103.410156 L 1494.960938 1754.550781 C 1494.949219 1754.628906 1494.96875 1754.710938 1495.011719 1754.78125 L 1495.558594 1755.929688 C 1495.648438 1756.109375 1495.820312 1756.230469 1496.019531 1756.230469 C 1496.21875 1756.230469 1496.398438 1756.121094 1496.488281 1755.941406 L 1726.011719 1303.820312 C 1726.058594 1303.71875 1726.070312 1303.609375 1726.058594 1303.5 L 1695.738281 1130.628906 C 1695.730469 1130.550781 1695.691406 1130.480469 1695.648438 1130.410156 L 1634.949219 1047.628906 L 1634.429688 1046.929688 C 1634.320312 1046.78125 1634.328125 1046.589844 1634.429688 1046.449219 L 1634.890625 1045.859375 L 1636.839844 1045.039062 C 1636.898438 1045.019531 1636.960938 1044.980469 1637 1044.941406 C 1637.179688 1044.761719 1637.210938 1044.480469 1637.070312 1044.28125 C 1636.96875 1044.128906 1636.808594 1044.050781 1636.640625 1044.039062 C 1636.570312 1044.039062 1636.5 1044.058594 1636.441406 1044.089844 L 1636.179688 1044.191406 L 1738.75 911.238281 L 1738.761719 911.238281 C 1738.769531 911.21875 1738.789062 911.191406 1738.808594 911.171875 C 1738.890625 911.019531 1738.890625 910.839844 1738.808594 910.679688 L 1738.519531 910.140625 C 1738.429688 909.96875 1738.261719 909.871094 1738.070312 909.859375 Z M 1738.058594 909.859375 "/>
    <path fill-rule="nonzero" fill="rgb(100%, 80.076599%, 57.617188%)" fill-opacity="1"
          d="M 1992.921875 1279.800781 L 1992.871094 1279.800781 L 1728.179688 1301.691406 C 1727.988281 1301.699219 1727.828125 1301.808594 1727.75 1301.980469 L 1727.390625 1302.679688 C 1727.328125 1302.671875 1727.28125 1302.660156 1727.21875 1302.660156 C 1727.191406 1302.660156 1727.148438 1302.660156 1727.121094 1302.660156 C 1726.828125 1302.710938 1726.640625 1302.988281 1726.691406 1303.28125 L 1726.789062 1303.859375 L 1725.578125 1306.25 L 1499.089844 1752.398438 C 1498.960938 1752.640625 1499.050781 1752.929688 1499.269531 1753.078125 C 1499.359375 1753.140625 1499.460938 1753.171875 1499.558594 1753.171875 C 1499.710938 1753.171875 1499.871094 1753.109375 1499.96875 1752.980469 C 1583.128906 1652.410156 1663.25 1559 1733.769531 1488.261719 C 1833.21875 1388.511719 1913.570312 1333.839844 1993.21875 1280.769531 C 1993.410156 1280.640625 1993.5 1280.398438 1993.429688 1280.179688 C 1993.371094 1279.960938 1993.160156 1279.800781 1992.929688 1279.800781 Z M 1992.921875 1279.800781 "/>
    <path fill-rule="nonzero" fill="rgb(100%, 48.242188%, 17.259216%)" fill-opacity="1"
          d="M 1805.148438 1025.789062 L 1805.070312 1025.960938 L 1804.769531 1026.160156 Z M 1804.769531 1025.628906 C 1804.609375 1025.628906 1804.449219 1025.710938 1804.351562 1025.839844 L 1804.339844 1025.839844 L 1695.839844 1125.941406 C 1695.699219 1126.058594 1695.640625 1126.238281 1695.679688 1126.421875 L 1726.308594 1301.128906 L 1726.671875 1303.179688 C 1726.71875 1303.429688 1726.941406 1303.609375 1727.191406 1303.621094 C 1727.21875 1303.621094 1727.25 1303.609375 1727.289062 1303.609375 C 1727.570312 1303.558594 1727.769531 1303.28125 1727.71875 1303 L 1727.691406 1302.871094 L 1727.671875 1302.699219 L 1727.390625 1301.148438 L 1727.378906 1301.148438 C 1727.441406 1301.078125 1727.53125 1301.039062 1727.628906 1301.03125 L 1993.390625 1279.050781 L 1993.378906 1279.050781 C 1993.390625 1279.050781 1993.398438 1279.050781 1993.410156 1279.050781 L 1993.429688 1279.050781 C 1993.621094 1279.03125 1993.789062 1278.910156 1993.871094 1278.730469 C 1993.941406 1278.539062 1993.910156 1278.339844 1993.789062 1278.179688 C 1952.539062 1227.789062 1913.820312 1179.101562 1879.96875 1133.679688 L 1879.941406 1133.648438 L 1879.921875 1133.621094 C 1879.511719 1133.070312 1879.101562 1132.519531 1878.679688 1131.96875 L 1878.660156 1131.96875 C 1878.648438 1131.921875 1878.621094 1131.871094 1878.589844 1131.828125 L 1878.589844 1131.820312 C 1867.5 1116.921875 1856.921875 1102.351562 1846.96875 1088.210938 C 1831.71875 1066.53125 1817.898438 1045.820312 1805.230469 1025.871094 C 1805.210938 1025.839844 1805.179688 1025.820312 1805.160156 1025.789062 C 1805.058594 1025.691406 1804.929688 1025.628906 1804.789062 1025.628906 Z M 1804.769531 1025.628906 "/>
    <path fill-rule="nonzero" fill="rgb(100%, 37.255859%, 0%)" fill-opacity="1"
          d="M 1739.269531 912.710938 L 1738.800781 912.949219 L 1738.800781 912.929688 Z M 1739.28125 912.179688 C 1739.089844 912.171875 1738.910156 912.269531 1738.820312 912.429688 L 1738.808594 912.429688 L 1637.640625 1043.570312 L 1637.628906 1043.570312 C 1637.570312 1043.601562 1637.519531 1043.640625 1637.480469 1043.679688 C 1637.390625 1043.769531 1637.339844 1043.878906 1637.320312 1044 L 1637.308594 1044 L 1635.46875 1046.378906 C 1635.328125 1046.570312 1635.320312 1046.828125 1635.460938 1047.019531 L 1635.839844 1047.53125 L 1694.089844 1126.960938 C 1694.191406 1127.109375 1694.351562 1127.179688 1694.511719 1127.179688 C 1694.578125 1127.179688 1694.660156 1127.171875 1694.730469 1127.140625 C 1694.949219 1127.039062 1695.078125 1126.808594 1695.039062 1126.558594 L 1694.949219 1126.070312 L 1694.960938 1126.128906 L 1694.949219 1126.070312 C 1694.929688 1125.960938 1694.96875 1125.851562 1695.058594 1125.769531 L 1804.191406 1025.089844 L 1804.210938 1025.089844 C 1804.25 1025.039062 1804.300781 1024.980469 1804.320312 1024.921875 C 1804.410156 1024.761719 1804.390625 1024.558594 1804.300781 1024.410156 C 1779.03125 984.558594 1758.320312 947.789062 1739.75 912.460938 C 1739.660156 912.28125 1739.480469 912.179688 1739.289062 912.179688 Z M 1739.28125 912.179688 "/>
    <path fill-rule="nonzero" fill="rgb(71.679688%, 26.660156%, 0%)" fill-opacity="1"
          d="M 2124.910156 810.980469 L 2124.75 810.988281 C 2096.109375 816.308594 2066.941406 822.199219 2037.160156 828.78125 C 1939.191406 850.429688 1834.390625 879.578125 1741.851562 908.621094 C 1741.699219 908.671875 1741.578125 908.78125 1741.519531 908.910156 L 1741.511719 908.910156 L 1740.210938 910.601562 C 1740.191406 910.621094 1740.179688 910.648438 1740.160156 910.679688 C 1740.070312 910.851562 1740.078125 911.050781 1740.179688 911.210938 C 1768.308594 964.828125 1801.371094 1021.769531 1847.738281 1087.671875 C 1857.53125 1101.578125 1867.929688 1115.910156 1878.808594 1130.570312 C 1878.910156 1130.710938 1879.070312 1130.789062 1879.25 1130.789062 C 1879.269531 1130.789062 1879.289062 1130.789062 1879.308594 1130.789062 L 1879.320312 1130.789062 C 1879.480469 1130.769531 1879.640625 1130.679688 1879.730469 1130.519531 C 1879.738281 1130.511719 1879.75 1130.5 1879.75 1130.488281 L 1879.738281 1130.488281 C 1891.929688 1109.128906 1906.121094 1086.460938 1923.191406 1061.910156 C 1973.230469 989.910156 2048 901.71875 2125.28125 811.878906 C 2125.351562 811.800781 2125.390625 811.699219 2125.410156 811.601562 C 2125.429688 811.449219 2125.390625 811.308594 2125.300781 811.191406 C 2125.210938 811.070312 2125.070312 811 2124.929688 810.980469 Z M 2124.910156 810.980469 "/>
</svg>
